<svg xmlns="http://www.w3.org/2000/svg" width="161" height="127" viewBox="0 0 161 127" version="1.1"><path d="M 56 16.500 C 53.571 18.975, 51.809 21, 52.084 21 C 52.359 21, 54.571 18.975, 57 16.500 C 59.429 14.025, 61.191 12, 60.916 12 C 60.641 12, 58.429 14.025, 56 16.500 M 105.500 17 C 108.209 19.750, 110.650 22, 110.925 22 C 111.200 22, 109.209 19.750, 106.500 17 C 103.791 14.250, 101.350 12, 101.075 12 C 100.800 12, 102.791 14.250, 105.500 17 M 120.527 36.781 C 124.351 42.999, 125.760 46.200, 125.355 47.750 C 124.802 49.867, 124.679 49.886, 121.641 48.323 C 118.500 46.706, 118.500 46.706, 122 50.060 C 123.925 51.905, 125.871 53.310, 126.324 53.182 C 126.778 53.055, 126.871 53.400, 126.532 53.949 C 126.192 54.498, 131.559 64.802, 138.457 76.847 C 145.356 88.892, 151 99.479, 151 100.374 C 151 101.514, 151.897 102, 154 102 C 157 102, 157 102, 157 94 C 157 86, 157 86, 154 86 C 152.284 86, 151 86.529, 151 87.236 C 151 87.916, 144.796 77.454, 137.213 63.986 C 123.778 40.126, 116.487 28, 115.575 28 C 115.328 28, 117.556 31.951, 120.527 36.781 M 38.771 39.250 C 36.583 42.623, 34.621 46.640, 35.718 45.500 C 37.120 44.043, 41.245 37, 40.697 37 C 40.440 37, 39.573 38.013, 38.771 39.250 M 22.860 67.431 C 16.612 78.668, 11.350 87.443, 11.167 86.931 C 10.983 86.419, 9.521 86, 7.917 86 C 5 86, 5 86, 5 94 C 5 102, 5 102, 8 102 C 10.029 102, 11 101.504, 11 100.467 C 11 99.624, 15.517 91.059, 21.038 81.433 C 26.559 71.808, 30.765 63.428, 30.384 62.812 C 29.970 62.143, 30.141 61.969, 30.807 62.381 C 31.483 62.798, 32.746 61.378, 34.006 58.785 C 35.929 54.830, 35.246 55.179, 32.289 59.663 C 30.252 62.751, 31.025 55.167, 33.197 50.750 C 34.211 48.688, 34.856 47, 34.630 47 C 34.404 47, 29.108 56.194, 22.860 67.431 M 118.234 51.520 C 119.146 52.630, 121.161 56.680, 122.710 60.520 C 125.480 67.385, 125.518 67.754, 125.013 83 C 124.500 98.500, 124.500 98.500, 78 98.500 C 31.500 98.500, 31.500 98.500, 31.277 92 C 31.155 88.425, 30.987 84.150, 30.904 82.500 C 30.821 80.850, 31.939 76.843, 33.389 73.596 C 34.839 70.349, 35.861 67.527, 35.658 67.325 C 35.210 66.876, 22 97.454, 22 98.941 C 22 100.041, 139.113 100.553, 140.208 99.458 C 141.126 98.541, 121.002 53.627, 118.720 51.500 C 116.574 49.500, 116.574 49.500, 118.234 51.520 M 7.428 108.080 C 4.639 111.161, 4.886 117.680, 7.884 120.107 C 10.909 122.557, 14.485 122.515, 17 120 C 19.443 117.557, 19.523 116.415, 17.312 115.566 C 16.289 115.174, 15.286 115.525, 14.763 116.459 C 12.749 120.058, 8.533 116.501, 9.668 112.162 C 10.248 109.942, 13.381 109.189, 14.500 111 C 15.260 112.230, 16.071 112.241, 17.960 111.046 C 19.210 110.255, 19.152 109.825, 17.555 108.061 C 15.082 105.328, 9.909 105.338, 7.428 108.080 M 24.536 106.941 C 24.216 107.459, 22.844 110.834, 21.486 114.441 C 19.017 121, 19.017 121, 21.509 121 C 23.057 121, 24 120.432, 24 119.500 C 24 118.562, 24.948 118, 26.531 118 C 27.924 118, 29.322 118.675, 29.638 119.500 C 30.489 121.717, 31.702 121.324, 32.383 118.612 C 33.238 115.202, 29.257 106, 26.926 106 C 25.931 106, 24.856 106.424, 24.536 106.941 M 34.985 113.250 C 34.974 118.300, 34.675 120.045, 34 119 C 33.172 117.718, 33.028 117.754, 33.015 119.250 C 33.007 120.213, 33.675 121, 34.500 121 C 35.690 121, 36 119.556, 36 114 C 36 107.768, 36.210 107, 37.917 107 C 38.971 107, 40.060 107.563, 40.338 108.250 C 40.639 108.997, 40.874 108.795, 40.921 107.750 C 40.979 106.455, 40.221 106, 38 106 C 35 106, 35 106, 34.985 113.250 M 111.045 107.250 C 111.070 107.938, 111.740 109.850, 112.535 111.500 C 113.728 113.977, 113.871 114.064, 113.353 112 C 113.008 110.625, 112.529 108.977, 112.289 108.337 C 112.049 107.698, 112.674 106.963, 113.677 106.703 C 115.139 106.325, 115.054 106.209, 113.250 106.116 C 112.013 106.052, 111.020 106.563, 111.045 107.250 M 120.686 107.377 C 120.395 108.134, 120.397 110.544, 120.691 112.733 C 120.996 115.007, 120.696 117.738, 119.990 119.106 C 119.250 120.541, 119.196 121.088, 119.855 120.473 C 120.898 119.498, 125 108.633, 125 106.843 C 125 105.437, 121.252 105.901, 120.686 107.377 M 126 113.500 C 126 121, 126 121, 132 121 C 136.667 121, 138 120.667, 138 119.500 C 138 118.417, 136.889 118, 134 118 C 131.111 118, 130 117.583, 130 116.500 C 130 115.452, 131.056 115, 133.500 115 C 135.944 115, 137 114.548, 137 113.500 C 137 112.452, 135.944 112, 133.500 112 C 131.575 112, 130 111.550, 130 111 C 130 110.450, 131.800 110, 134 110 C 137.333 110, 138 109.667, 138 108 C 138 106.222, 137.333 106, 132 106 C 126 106, 126 106, 126 113.500 M 139 113.500 C 139 120.333, 139.178 121, 141 121 C 142.640 121, 143.004 120.326, 143.023 117.250 C 143.046 113.500, 143.046 113.500, 145.220 117.250 C 146.738 119.869, 148.088 121, 149.697 121 C 151.896 121, 152 120.663, 152 113.500 C 152 106.667, 151.822 106, 150 106 C 148.357 106, 148 106.667, 148 109.732 C 148 113.464, 148 113.464, 145.464 109.732 C 143.981 107.550, 142.112 106, 140.964 106 C 139.187 106, 139 106.713, 139 113.500 M 115.644 110 C 115.987 111.375, 116.707 113.625, 117.244 115 C 118.172 117.377, 118.261 117.402, 119.040 115.500 C 119.491 114.400, 119.859 112.825, 119.859 112 C 119.859 111.082, 119.548 111.276, 119.057 112.500 C 118.334 114.302, 118.095 114.153, 116.638 111 C 115.636 108.833, 115.258 108.452, 115.644 110 M 89.667 109.667 C 89.300 110.033, 89.007 110.821, 89.015 111.417 C 89.025 112.121, 89.291 112.091, 89.774 111.331 C 90.183 110.689, 92.089 109.973, 94.009 109.741 C 97.500 109.320, 97.500 109.320, 93.917 109.160 C 91.946 109.072, 90.033 109.300, 89.667 109.667 M 38.121 116.500 C 38.178 121.318, 38.215 121.381, 39.125 118.224 C 39.738 116.102, 39.717 114.341, 39.066 113.224 C 38.300 111.911, 38.075 112.692, 38.121 116.500 M 45.610 114.417 C 45.276 115.747, 45.424 117.884, 45.938 119.167 C 46.721 121.120, 46.884 120.726, 46.937 116.750 C 47.006 111.523, 46.542 110.705, 45.610 114.417" stroke="none" fill="#984e07" fill-rule="evenodd"/><path d="M 72.890 5.416 C 60.287 10.242, 46.441 25.859, 34.196 49.058 C 31.317 54.513, 30.444 57.164, 30.926 58.986 C 31.538 61.301, 31.808 61.079, 34.864 55.738 C 37.555 51.034, 39.344 49.302, 44.822 46.096 C 48.495 43.947, 57.776 38.321, 65.447 33.594 C 73.117 28.867, 80.092 25.005, 80.947 25.010 C 81.801 25.016, 91.950 30.670, 103.500 37.575 C 119.344 47.047, 124.580 49.742, 124.826 48.552 C 125.007 47.673, 125.650 47.284, 126.279 47.672 C 127.551 48.459, 123.873 41.899, 117.212 31.500 C 111.409 22.442, 98.913 10.034, 92.514 6.976 C 86.581 4.141, 78.001 3.459, 72.890 5.416 M 52 46.218 C 42.500 52.186, 42.500 52.186, 36.543 66.230 C 33.188 74.139, 30.704 81.415, 30.855 82.887 C 31.003 84.324, 31.209 88.425, 31.312 92 C 31.500 98.500, 31.500 98.500, 78 98.500 C 124.500 98.500, 124.500 98.500, 125.041 83.500 C 125.338 75.250, 125.676 69.138, 125.791 69.917 C 125.906 70.696, 126.236 71.098, 126.523 70.810 C 127.182 70.151, 120.314 53.935, 118.667 52.259 C 117.232 50.800, 101.852 41, 100.997 41 C 100.675 41, 101.193 48.087, 102.147 56.750 C 104.243 75.764, 104.379 81.221, 102.800 82.800 C 101.946 83.654, 95.790 84, 81.455 84 C 63.046 84, 61.164 83.839, 59.617 82.130 C 58.026 80.371, 58.048 79.075, 59.977 60.478 C 61.106 49.598, 61.911 40.596, 61.765 40.473 C 61.619 40.350, 57.225 42.936, 52 46.218 M 52.667 106.667 C 52.300 107.033, 52 110.408, 52 114.167 C 52 120.333, 52.195 121, 54 121 C 55.467 121, 56 120.333, 56 118.500 C 56 116.520, 56.505 116, 58.429 116 C 63.572 116, 65.803 110.376, 61.777 107.557 C 59.534 105.985, 53.898 105.435, 52.667 106.667 M 71 113.500 C 71 120.333, 71.178 121, 73 121 C 74.556 121, 75 120.333, 75 118 C 75 115.467, 75.389 115, 77.500 115 C 79.611 115, 80 115.467, 80 118 C 80 120, 80.500 121, 81.500 121 C 82.700 121, 83 119.500, 83 113.500 C 83 107.500, 82.700 106, 81.500 106 C 80.500 106, 80 107, 80 109 C 80 111.533, 79.611 112, 77.500 112 C 75.389 112, 75 111.533, 75 109 C 75 106.667, 74.556 106, 73 106 C 71.178 106, 71 106.667, 71 113.500 M 86 113.500 C 86 121, 86 121, 91.500 121 C 95.722 121, 97 120.652, 97 119.500 C 97 118.417, 95.889 118, 93 118 C 87.600 118, 87.385 115.254, 92.750 114.810 C 97.635 114.406, 97.592 112.590, 92.688 112.186 C 87.824 111.785, 88.287 109.616, 93.327 109.190 C 95.713 108.988, 97 108.375, 97 107.440 C 97 106.361, 95.620 106, 91.500 106 C 86 106, 86 106, 86 113.500 M 36 114 C 36 121.860, 37.710 123.591, 38.222 116.250 C 38.553 111.500, 38.553 111.500, 39.895 116.250 C 40.634 118.862, 41.833 121, 42.561 121 C 43.288 121, 44.538 118.862, 45.338 116.250 C 46.792 111.500, 46.792 111.500, 46.896 116.250 C 46.973 119.759, 47.392 121, 48.500 121 C 49.690 121, 50 119.556, 50 114 C 50 107.229, 49.919 107, 47.539 107 C 45.494 107, 44.878 107.719, 43.903 111.250 C 42.729 115.500, 42.729 115.500, 41.281 111.250 C 40.253 108.232, 39.278 107, 37.917 107 C 36.210 107, 36 107.768, 36 114 M 102.753 108.698 C 102.474 109.689, 101.297 112.862, 100.138 115.750 C 98.051 120.946, 98.050 121, 100.015 121 C 101.113 121, 102 120.330, 102 119.500 C 102 118.452, 103.056 118, 105.500 118 C 107.944 118, 109 118.452, 109 119.500 C 109 120.325, 109.675 121, 110.500 121 C 112.491 121, 112.415 120.363, 109.598 113.420 C 107.098 107.257, 103.799 104.981, 102.753 108.698 M 112.247 108.250 C 112.501 108.938, 113.484 111.857, 114.431 114.738 C 115.378 117.619, 116.637 120.276, 117.228 120.641 C 118.920 121.687, 121.008 117.969, 120.924 114.059 C 120.848 110.500, 120.848 110.500, 119.540 114 C 118.232 117.500, 118.232 117.500, 117.124 114.706 C 116.515 113.169, 115.739 110.807, 115.400 109.456 C 115.061 108.105, 114.109 107, 113.285 107 C 112.460 107, 111.994 107.563, 112.247 108.250 M 56 111 C 56 112.506, 56.522 113.046, 57.750 112.810 C 58.712 112.624, 59.500 111.810, 59.500 111 C 59.500 110.190, 58.712 109.376, 57.750 109.190 C 56.522 108.954, 56 109.494, 56 111 M 104.682 111.652 C 103.451 112.882, 103.969 115, 105.500 115 C 107.166 115, 107.374 114.138, 106.166 112.235 C 105.725 111.539, 105.057 111.277, 104.682 111.652" stroke="none" fill="#dead04" fill-rule="evenodd"/></svg>